<svg xmlns="http://www.w3.org/2000/svg" width="1200" height="630" viewBox="0 0 1200 630" role="img" aria-labelledby="title desc">
  <title id="title">Partidos 2026 - Calendario y fixture</title>
  <desc id="desc">Vista previa para compartir el calendario de partidos 2026, fixture, horarios y clasificación.</desc>
  <defs>
    <linearGradient id="bg" x1="0" y1="0" x2="1" y2="1">
      <stop offset="0" stop-color="#00163f"/>
      <stop offset="0.48" stop-color="#062b72"/>
      <stop offset="1" stop-color="#08743d"/>
    </linearGradient>
    <radialGradient id="glow" cx="28%" cy="15%" r="70%">
      <stop offset="0" stop-color="#ffd34d" stop-opacity="0.55"/>
      <stop offset="0.45" stop-color="#ffd34d" stop-opacity="0.1"/>
      <stop offset="1" stop-color="#ffd34d" stop-opacity="0"/>
    </radialGradient>
    <filter id="shadow" x="-20%" y="-20%" width="140%" height="140%">
      <feDropShadow dx="0" dy="18" stdDeviation="20" flood-color="#000" flood-opacity="0.35"/>
    </filter>
  </defs>
  <rect width="1200" height="630" fill="url(#bg)"/>
  <rect width="1200" height="630" fill="url(#glow)"/>
  <circle cx="1030" cy="125" r="150" fill="#ffffff" opacity="0.06"/>
  <circle cx="1048" cy="128" r="112" fill="none" stroke="#ffffff" stroke-width="10" opacity="0.16"/>
  <path d="M0 502 C210 424 372 560 580 500 C792 438 944 438 1200 520 L1200 630 L0 630 Z" fill="#ffffff" opacity="0.08"/>
  <g filter="url(#shadow)">
    <rect x="76" y="74" width="1048" height="482" rx="34" fill="#061a45" opacity="0.88" stroke="#f5b241" stroke-opacity="0.72" stroke-width="3"/>
  </g>
  <g transform="translate(118 116)">
    <rect x="0" y="0" width="110" height="110" rx="22" fill="#001026" stroke="#f5b241" stroke-width="3"/>
    <text x="55" y="73" text-anchor="middle" font-size="58" font-family="Arial, Helvetica, sans-serif">🏆</text>
  </g>
  <text x="250" y="168" fill="#ffd34d" font-size="34" font-weight="700" font-family="Arial, Helvetica, sans-serif" letter-spacing="3">MUNDIAL 2026</text>
  <text x="118" y="290" fill="#ffffff" font-size="76" font-weight="800" font-family="Arial, Helvetica, sans-serif">Partidos 2026</text>
  <text x="118" y="362" fill="#dbe7ff" font-size="38" font-weight="600" font-family="Arial, Helvetica, sans-serif">Calendario, fixture, horarios y clasificación</text>
  <g transform="translate(118 430)">
    <rect x="0" y="0" width="225" height="54" rx="27" fill="#f5b241"/>
    <text x="112" y="36" text-anchor="middle" fill="#061a45" font-size="24" font-weight="800" font-family="Arial, Helvetica, sans-serif">VER FIXTURE</text>
    <rect x="250" y="0" width="202" height="54" rx="27" fill="#ffffff" opacity="0.13" stroke="#ffffff" stroke-opacity="0.26"/>
    <text x="351" y="36" text-anchor="middle" fill="#ffffff" font-size="24" font-weight="700" font-family="Arial, Helvetica, sans-serif">MOBILE READY</text>
  </g>
  <text x="118" y="528" fill="#b8c8ee" font-size="22" font-family="Arial, Helvetica, sans-serif">oprbguitar.github.io/mundial</text>
</svg>
